<?xml version="1.0" standalone="no"?>
<!DOCTYPE svg PUBLIC "-//W3C//DTD SVG 20010904//EN"
 "http://www.w3.org/TR/2001/REC-SVG-20010904/DTD/svg10.dtd">
<svg version="1.0" xmlns="http://www.w3.org/2000/svg"
 width="686.000000pt" height="686.000000pt" viewBox="0 0 686.000000 686.000000"
 preserveAspectRatio="xMidYMid meet">
<metadata>
Created by potrace 1.14, written by Peter Selinger 2001-2017
</metadata>
<g transform="translate(0.000000,686.000000) scale(0.100000,-0.100000)"
fill="#000000" stroke="none">
<path d="M4420 6344 c0 -2 20 -43 44 -91 106 -211 159 -386 191 -629 27 -207
15 -484 -31 -684 -71 -316 -252 -675 -485 -965 -101 -126 -262 -297 -357 -380
-44 -38 -81 -73 -81 -76 -2 -18 335 81 500 146 711 279 1114 687 1190 1205 7
52 10 135 6 219 -23 580 -345 1024 -887 1226 -50 18 -90 31 -90 29z"/>
<path d="M2350 6316 c-189 -68 -365 -180 -510 -325 -166 -166 -275 -356 -330
-575 -198 -784 190 -1375 1150 -1751 137 -54 322 -112 440 -139 l65 -14 -113
106 c-337 315 -603 696 -736 1055 -189 508 -164 1085 67 1557 29 61 49 110 43
110 -6 -1 -40 -11 -76 -24z"/>
<path d="M1027 5320 c-375 -764 -244 -1424 351 -1758 148 -84 349 -150 524
-172 376 -49 596 -106 825 -215 263 -125 427 -272 526 -470 54 -108 71 -181
71 -325 1 -141 -14 -198 -75 -287 -91 -132 -280 -254 -469 -304 l-45 -11 -90
57 -90 57 -85 -5 c-54 -3 -98 -11 -120 -22 l-34 -17 55 -46 c81 -67 294 -284
380 -387 228 -271 408 -551 578 -897 87 -179 111 -219 111 -187 0 6 43 97 95
201 157 312 313 558 512 807 106 134 339 377 442 463 l55 46 -35 18 c-22 11
-64 19 -121 22 l-86 4 -86 -56 c-48 -31 -92 -56 -100 -56 -7 0 -44 11 -82 24
-269 93 -440 245 -489 433 -29 111 -12 300 38 418 66 156 192 304 348 408 244
162 551 264 955 317 244 32 379 71 557 162 315 161 520 425 582 750 20 108 20
318 -1 449 -32 201 -108 425 -217 633 l-52 99 -16 -117 c-54 -375 -196 -739
-411 -1053 -219 -318 -412 -463 -1056 -787 -128 -65 -287 -154 -355 -199 -210
-139 -411 -360 -462 -507 -8 -25 -18 -52 -21 -60 -3 -9 -13 8 -25 43 -36 107
-97 195 -224 323 -154 155 -285 242 -608 405 -503 254 -670 360 -852 545 -299
302 -534 802 -604 1287 l-18 122 -76 -155z m2417 -3362 c10 -42 105 -175 161
-227 68 -61 158 -113 240 -137 l60 -17 -45 -14 c-30 -9 -77 -13 -140 -10 -109
4 -169 28 -246 99 l-44 41 -46 -43 c-72 -67 -142 -94 -249 -98 -57 -2 -107 2
-135 11 l-45 14 60 17 c141 42 279 153 363 292 23 38 42 76 42 82 0 21 18 13
24 -10z m17 -494 c35 -38 140 -111 193 -135 l46 -20 -34 -42 c-57 -71 -129
-188 -181 -295 -28 -56 -52 -102 -55 -102 -3 0 -26 44 -53 98 -46 95 -139 244
-192 309 l-27 32 37 15 c51 22 164 98 199 135 17 17 33 31 36 31 4 0 17 -12
31 -26z"/>
<path d="M437 4118 c-39 -168 -51 -276 -51 -443 1 -264 59 -471 185 -657 205
-302 606 -493 940 -449 210 28 566 148 814 274 140 72 221 88 327 66 158 -34
258 -141 274 -296 14 -129 -53 -242 -181 -303 -64 -31 -204 -60 -286 -60 -45
0 -49 -2 -49 -23 0 -13 7 -47 16 -76 60 -203 386 -244 549 -69 116 123 164
350 115 542 -74 290 -322 473 -751 552 -47 9 -187 19 -319 23 -201 7 -252 12
-355 36 -225 51 -376 117 -525 229 -160 120 -418 408 -592 661 -40 58 -75 105
-78 105 -4 0 -18 -51 -33 -112z"/>
<path d="M6345 4173 c-186 -281 -479 -607 -658 -734 -132 -93 -290 -159 -492
-204 -102 -23 -156 -28 -355 -35 -245 -9 -348 -23 -497 -66 -375 -109 -573
-320 -590 -630 -20 -361 217 -603 504 -516 112 35 172 103 188 213 l7 46 -89
6 c-169 12 -282 55 -361 141 -130 141 -71 397 112 486 26 12 80 27 120 33 97
14 167 -3 328 -82 222 -108 494 -205 688 -247 113 -24 291 -25 388 -1 295 71
551 257 692 502 51 91 104 236 126 351 24 119 23 372 0 509 -23 135 -58 285
-66 285 -4 0 -24 -26 -45 -57z"/>
</g>
</svg>
